<?xml version="1.0" standalone="no"?>
<!DOCTYPE svg PUBLIC "-//W3C//DTD SVG 20010904//EN"
 "http://www.w3.org/TR/2001/REC-SVG-20010904/DTD/svg10.dtd">
<svg version="1.0" xmlns="http://www.w3.org/2000/svg"
 width="640.000000pt" height="390.000000pt" viewBox="0 0 640.000000 390.000000"
 preserveAspectRatio="xMidYMid meet">

<g transform="translate(0.000000,390.000000) scale(0.100000,-0.100000)"
fill="#000000" stroke="none">
<path d="M4160 3491 c-30 -5 -113 -24 -185 -44 -71 -20 -143 -39 -160 -43 -46
-11 -274 -103 -325 -132 -151 -84 -215 -123 -297 -179 -51 -35 -96 -63 -101
-63 -5 0 -17 9 -28 21 -29 32 -261 182 -349 227 -108 54 -215 94 -362 136
-183 53 -283 69 -423 70 -148 1 -170 -8 -202 -82 -11 -26 -36 -66 -55 -89 -20
-26 -46 -78 -64 -130 -16 -47 -37 -95 -46 -106 -10 -11 -50 -34 -89 -52 -39
-18 -75 -38 -79 -44 -3 -7 -24 -23 -45 -36 -22 -14 -50 -44 -64 -67 l-25 -43
-3 -1130 c-3 -1233 -5 -1197 53 -1255 47 -47 99 -52 247 -24 334 63 477 71
650 35 197 -41 292 -86 526 -246 134 -93 209 -119 341 -119 146 0 238 35 490
187 55 33 133 76 174 94 231 105 505 129 773 68 143 -33 237 -35 301 -7 75 33
108 61 130 111 20 45 20 55 12 781 -5 404 -9 926 -9 1160 l-1 425 -23 32 c-23
33 -153 117 -234 152 -64 27 -84 57 -92 138 -20 197 -75 245 -291 257 -49 2
-115 1 -145 -3z m261 -211 c-1 -47 -4 -86 -6 -88 -2 -2 -52 -8 -112 -13 -219
-19 -399 -69 -620 -174 -163 -77 -363 -213 -511 -347 -30 -26 -58 -48 -63 -48
-6 0 -47 30 -92 68 -370 306 -687 449 -1135 513 -96 13 -102 19 -102 108 l0
61 43 0 c69 0 251 -36 398 -79 328 -96 567 -220 781 -406 48 -41 94 -75 103
-75 9 0 53 35 98 78 107 99 192 155 382 251 156 79 326 141 500 182 123 29
285 58 314 56 24 -2 24 -4 22 -87z m-2398 -286 c181 -34 443 -131 590 -218 82
-48 281 -196 317 -235 117 -126 151 -161 159 -161 16 0 114 81 186 155 170
173 441 332 697 410 122 37 323 75 397 75 40 0 43 -2 37 -22 -3 -13 -6 -52 -6
-88 l0 -66 -102 -12 c-319 -36 -612 -138 -800 -278 -71 -53 -97 -99 -77 -136
13 -24 34 -19 189 49 172 76 266 109 400 144 111 29 345 69 404 69 28 0 29 0
22 -46 -3 -26 -6 -398 -6 -828 l0 -781 -144 3 c-347 8 -739 -109 -1051 -313
-45 -29 -87 -60 -94 -69 -18 -22 -34 -20 -57 5 -64 70 -477 289 -546 289 -10
0 -65 16 -123 35 -121 41 -264 65 -380 65 -71 0 -108 -4 -232 -27 l-33 -6 0
838 0 838 73 -7 c87 -9 185 -28 337 -66 142 -36 246 -74 419 -152 138 -63 161
-66 169 -23 10 51 -8 83 -76 133 -193 143 -596 272 -847 272 l-53 0 -4 83 c-2
45 -2 86 0 91 5 10 129 0 235 -20z m-397 -39 c3 -8 7 -29 8 -47 1 -28 -3 -33
-31 -41 l-33 -10 -2 -921 c-2 -885 0 -1143 8 -1158 3 -4 35 2 72 12 116 31
229 43 377 38 293 -10 575 -103 840 -279 114 -75 171 -99 236 -99 58 0 161 42
242 98 196 136 424 223 712 272 81 14 343 8 473 -10 46 -6 87 -9 90 -5 8 8 13
1976 6 2018 -5 25 -9 27 -60 27 -48 0 -54 2 -54 21 0 38 30 87 57 94 14 3 67
3 118 -1 l92 -6 -1 -1168 c-1 -643 -4 -1171 -8 -1175 -4 -4 -46 3 -95 14 -50
12 -160 26 -256 33 -329 23 -563 -20 -832 -155 -55 -27 -119 -63 -143 -79 -24
-17 -80 -47 -125 -68 -201 -93 -325 -79 -539 62 -134 89 -165 106 -282 154
-188 77 -384 107 -607 93 -148 -10 -233 -22 -341 -50 -85 -21 -114 -24 -123
-10 -3 5 -6 535 -6 1178 l0 1168 53 6 c105 11 148 10 154 -6z"/>
<path d="M2735 2230 c-161 -7 -185 -12 -185 -40 0 -24 5 -26 76 -45 32 -8 62
-19 67 -24 8 -8 11 -917 2 -931 -3 -4 -24 -10 -47 -14 -78 -13 -119 -77 -57
-90 39 -8 265 -6 379 2 82 7 85 8 85 32 0 19 -9 29 -37 42 -27 13 -38 25 -38
41 0 12 -3 70 -7 128 l-6 106 45 36 c25 20 49 37 54 37 5 0 20 -17 33 -38 13
-20 69 -96 123 -168 54 -72 98 -135 98 -140 0 -4 -12 -18 -27 -30 -18 -14 -24
-26 -20 -38 6 -16 25 -17 225 -14 119 2 225 8 235 12 40 19 11 64 -54 85 -44
14 -65 37 -196 212 -56 75 -128 167 -160 205 -32 38 -67 82 -76 97 -20 31 -19
34 38 93 11 11 36 38 56 60 89 97 295 283 355 320 47 29 49 31 34 49 -18 22
-471 23 -490 0 -20 -24 -7 -49 37 -69 23 -10 44 -25 47 -32 3 -8 -17 -42 -45
-76 -50 -62 -299 -321 -304 -316 -7 8 -11 379 -4 390 4 8 31 25 58 38 40 18
51 28 51 47 0 45 -24 47 -345 33z"/>
</g>
</svg>
